# xmcd
#
# Track frame offsets:
# 150
# 7649
# 25250
# 39713
# 48516
# 71508
# 93237
# 108681
# 129426
# 152057
# 167545
# 182195
# 192333
# 199608
# 213385
# 226088
#
# Disc length: 3179 seconds
#
#
# Revision: 0
# Processed by: cddbd v1.5.2PL0 Copyright (c) Steve Scherf et al.
# Submitted via: Nero 7, 0, 8, 2 
#
DISCID=cd0c6910
DTITLE=Teresa Machado  - Ternuras – Teresa Machado ao vivo
DYEAR=2007
DGENRE=Country
TTITLE0=Guitarrada “Vira de Frielas” [José Nunes]
TTITLE1=Tudo isto é fado [Fernando Carvalho - Anibal Nazareth]
TTITLE2=Trago fado nos sentidos [Amália Rodrigues - Carlos Gonçalves]
TTITLE3=Fado Rosita [DR - Joaquim Campos]\t
TTITLE4=Alvorada [Júlio de Sousa]\t
TTITLE5=Teu nome simplesmente [Mário Rainho - Fontes Rocha]
TTITLE6=Pode ser mentira, [Frederico de Brito]\t
TTITLE7=Lágrima, [Amália Rodrigues - Carlos Gonçalves]
TTITLE8=Adeus  [João Galhardo - Raúl Ferrão]\t
TTITLE9=Estranho silêncio [Mário Rainho - Fontes Rocha]\t
TTITLE10=Fado da mulher sozinha [Paco Bandeira]\t
TTITLE11=Poema “Vem por aqui” [José Régio]\t
TTITLE12=Poema “Ilha” [David Mourão-Ferreira]\t
TTITLE13=Guitarrada Variação “Fado menor e Fado Lopes”              
TTITLE14=Fado do toureiro [Amadeu do Vale - Raul Ferrão]\t
TTITLE15=De tarde [Cesário Verde - Miguel Ramos (Fado Margarida)]\t
EXTD=
EXTT0=
EXTT1=
EXTT2=
EXTT3=
EXTT4=
EXTT5=
EXTT6=
EXTT7=
EXTT8=
EXTT9=
EXTT10=
EXTT11=
EXTT12=
EXTT13=
EXTT14=
EXTT15=
PLAYORDER=
